M48
METRIC,LZ,000.000
;FILE_FORMAT=3:3
;TYPE=PLATED
;Layer: PTH_Through
;EasyEDA v6.5.44, 2024-08-15 16:09:49
;6019c0ef6d974e658929918cbd89991a,14e18c81352b4cb09636949e9aeec340,10
;Gerber Generator version 0.2
;Holesize 1 = 0.305 mm
T01C0.305
;Holesize 2 = 0.800 mm
T02C0.800
;Holesize 3 = 0.920 mm
T03C0.920
;Holesize 4 = 1.000 mm
T04C1.000
;Holesize 5 = 2.101 mm
T05C2.101
%
G05
G90
T01
X048680Y077748
X022342Y073660
X022699Y072390
T02
X069541Y066082G85X067841Y066082
X069541Y077682G85X067841Y077682
T03
X021407Y041487
X018907Y041487
X016907Y041487
X014407Y041487
X055189Y041614
X052689Y041614
X050689Y041614
X048189Y041614
T04
X066691Y075382
X066691Y072882
X066691Y070882
X066691Y068382
T05
X010907Y038777
X024907Y038777
X044689Y038904
X058689Y038904
M30
