G04 Layer: BottomLayer*
G04 EasyEDA v6.5.44, 2024-08-15 16:09:49*
G04 6019c0ef6d974e658929918cbd89991a,14e18c81352b4cb09636949e9aeec340,10*
G04 Gerber Generator version 0.2*
G04 Scale: 100 percent, Rotated: No, Reflected: No *
G04 Dimensions in millimeters *
G04 leading zeros omitted , absolute positions ,4 integer and 5 decimal *
%FSLAX45Y45*%
%MOMM*%

%ADD10C,0.2540*%
%ADD11R,2.8000X1.6000*%
%ADD12R,1.6000X1.6000*%
%ADD13C,1.6000*%
%ADD14C,2.6000*%
%ADD15C,1.5240*%
%ADD16R,1.5240X1.5240*%
%ADD17C,0.6096*%

%LPD*%
D10*
X2140686Y4148709D02*
G01*
X1869694Y3877716D01*
X1090701Y3877716D01*
X2140686Y4148709D02*
G01*
X2219706Y4148709D01*
X2490698Y3877716D01*
X6785127Y6608216D02*
G01*
X5868898Y5691987D01*
X5868898Y3890416D01*
X6785127Y6608216D02*
G01*
X6701129Y6608216D01*
X6869099Y6608216D02*
G01*
X6785127Y6608216D01*
X5518886Y4161409D02*
G01*
X5597906Y4161409D01*
X5868898Y3890416D01*
X6869099Y7768209D02*
G01*
X6701129Y7768209D01*
X6701129Y7768209D02*
G01*
X6701129Y7667650D01*
X6708520Y7660259D01*
X6749770Y7660259D01*
X6790994Y7619034D01*
X6790994Y6960108D01*
X6669100Y6838213D01*
X6669100Y6838213D02*
G01*
X6701129Y6806184D01*
X6701129Y6608216D01*
X4818888Y4161409D02*
G01*
X4818888Y4265574D01*
X4818888Y4265574D02*
G01*
X4867986Y4314672D01*
X4867986Y7774787D01*
X1690700Y4148709D02*
G01*
X1690700Y6822541D01*
X2234158Y7366000D01*
X1890699Y4148709D02*
G01*
X1890699Y6859828D01*
X2269870Y7239000D01*
D11*
G01*
X6869099Y6608190D03*
G01*
X6869099Y7768209D03*
D12*
G01*
X6669100Y7538186D03*
D13*
G01*
X6669100Y7288199D03*
G01*
X6669100Y7088200D03*
G01*
X6669100Y6838187D03*
D14*
G01*
X1090701Y3877690D03*
G01*
X2490698Y3877690D03*
D15*
G01*
X2140686Y4148683D03*
G01*
X1890699Y4148683D03*
G01*
X1690700Y4148683D03*
D16*
G01*
X1440687Y4148683D03*
D14*
G01*
X4468901Y3890390D03*
G01*
X5868898Y3890390D03*
D15*
G01*
X5518886Y4161383D03*
G01*
X5268899Y4161383D03*
G01*
X5068900Y4161383D03*
D16*
G01*
X4818888Y4161383D03*
D17*
G01*
X4867986Y7774787D03*
G01*
X2234158Y7366000D03*
G01*
X2269870Y7239000D03*
M02*
