G04 Layer: TopLayer*
G04 EasyEDA v6.5.44, 2024-08-15 16:09:49*
G04 6019c0ef6d974e658929918cbd89991a,14e18c81352b4cb09636949e9aeec340,10*
G04 Gerber Generator version 0.2*
G04 Scale: 100 percent, Rotated: No, Reflected: No *
G04 Dimensions in millimeters *
G04 leading zeros omitted , absolute positions ,4 integer and 5 decimal *
%FSLAX45Y45*%
%MOMM*%

%ADD10C,0.2540*%
%ADD11R,0.9000X0.8000*%
%ADD12R,0.8000X0.9000*%
%ADD13R,0.7500X1.0000*%
%ADD14O,1.7450054X0.5599938*%
%ADD15R,2.8000X1.6000*%
%ADD16R,1.6000X1.6000*%
%ADD17C,1.6000*%
%ADD18C,2.6000*%
%ADD19C,1.5240*%
%ADD20R,1.5240X1.5240*%
%ADD21C,0.6096*%

%LPD*%
D10*
X1090698Y3877716D02*
G01*
X1161897Y3948915D01*
X1161897Y4521200D01*
X4468901Y3890416D02*
G01*
X2503398Y3890416D01*
X2490698Y3877716D01*
X4396231Y7916570D02*
G01*
X4396231Y7848600D01*
X3640048Y7874000D02*
G01*
X3687749Y7921701D01*
X4391101Y7921701D01*
X4396231Y7916570D01*
X5168900Y8388502D02*
G01*
X4868163Y8388502D01*
X4396231Y7916570D01*
X4532172Y7848600D02*
G01*
X4664532Y7716240D01*
X4892268Y7716240D01*
X4895595Y7719568D01*
X5003800Y7719568D01*
X3640048Y7874000D02*
G01*
X3616197Y7874000D01*
X3521963Y7779765D01*
X3521963Y7464552D01*
X3620515Y7366000D01*
X3640048Y7366000D01*
X4464202Y7848600D02*
G01*
X4532172Y7848600D01*
X4430217Y7848600D02*
G01*
X4464202Y7848600D01*
X4430217Y7848600D02*
G01*
X4396231Y7848600D01*
X5518886Y4161409D02*
G01*
X5247893Y3890416D01*
X4468901Y3890416D01*
X5003800Y7651597D02*
G01*
X5003800Y7719568D01*
X6869099Y7768209D02*
G01*
X6701129Y7768209D01*
X6701129Y7768209D02*
G01*
X6697979Y7771358D01*
X5123561Y7771358D01*
X5071770Y7719568D01*
X5003800Y7719568D01*
X5868901Y3890416D02*
G01*
X5708802Y4050515D01*
X5708802Y4597400D01*
X5003800Y7791602D02*
G01*
X4930825Y7791602D01*
X4867986Y7774787D02*
G01*
X4914011Y7774787D01*
X4930825Y7791602D01*
X5003800Y7791602D02*
G01*
X5003800Y7859572D01*
X5003800Y7859572D02*
G01*
X5759145Y7859572D01*
X5827344Y7927771D01*
X5892800Y7927771D02*
G01*
X5827344Y7927771D01*
X5827344Y7927771D02*
G01*
X5506618Y8248497D01*
X5168900Y8248497D01*
X1440687Y4148709D02*
G01*
X1336522Y4148709D01*
X1336520Y4148709D02*
G01*
X1336520Y4486582D01*
X1301902Y4521200D01*
X1492783Y4148709D02*
G01*
X1440687Y4148709D01*
X1492783Y4148709D02*
G01*
X1544853Y4148709D01*
X4818888Y4161409D02*
G01*
X2449601Y4161409D01*
X2330678Y4042486D01*
X1625041Y4042486D01*
X1544853Y4122673D01*
X1544853Y4148709D01*
X4324197Y7848600D02*
G01*
X4256227Y7848600D01*
X3640048Y7620000D02*
G01*
X4027627Y7620000D01*
X4256227Y7848600D01*
X5892800Y7693253D02*
G01*
X5958255Y7693253D01*
X6669100Y7538212D02*
G01*
X6113297Y7538212D01*
X5958255Y7693253D01*
X3065551Y7366000D02*
G01*
X2234158Y7366000D01*
X2269870Y7239000D02*
G01*
X3065551Y7239000D01*
X5068900Y4161409D02*
G01*
X5068900Y5135727D01*
X3092627Y7112000D01*
X3065551Y7112000D01*
X5268899Y4161409D02*
G01*
X5163235Y4055745D01*
X5010531Y4055745D01*
X4929504Y4136770D01*
X4929504Y5121046D01*
X3065551Y6985000D01*
X6669100Y7088225D02*
G01*
X3663822Y7088225D01*
X3640048Y7112000D01*
X6669100Y7288225D02*
G01*
X6556375Y7175500D01*
X3557041Y7175500D01*
X3513531Y7131989D01*
X3513531Y7075652D01*
X3604183Y6985000D01*
X3640048Y6985000D01*
X3640048Y7493000D02*
G01*
X4127500Y7493000D01*
X5568797Y6051702D01*
X5568797Y4597400D01*
D11*
G01*
X5168900Y8388502D03*
G01*
X5168900Y8248497D03*
D12*
G01*
X1161897Y4521200D03*
G01*
X1301902Y4521200D03*
D11*
G01*
X5003800Y7651597D03*
G01*
X5003800Y7791602D03*
D12*
G01*
X4464202Y7848600D03*
G01*
X4324197Y7848600D03*
G01*
X5708802Y4597400D03*
G01*
X5568797Y4597400D03*
D13*
G01*
X5892800Y7693253D03*
G01*
X5892800Y7927746D03*
D14*
G01*
X3065551Y7874000D03*
G01*
X3065551Y7747000D03*
G01*
X3065551Y7620000D03*
G01*
X3065551Y7493000D03*
G01*
X3065551Y7366000D03*
G01*
X3065551Y7239000D03*
G01*
X3065551Y7112000D03*
G01*
X3065551Y6985000D03*
G01*
X3640048Y7874000D03*
G01*
X3640048Y7747000D03*
G01*
X3640048Y7620000D03*
G01*
X3640048Y7493000D03*
G01*
X3640048Y7366000D03*
G01*
X3640048Y7239000D03*
G01*
X3640048Y7112000D03*
G01*
X3640048Y6985000D03*
D15*
G01*
X6869099Y6608190D03*
G01*
X6869099Y7768209D03*
D16*
G01*
X6669100Y7538186D03*
D17*
G01*
X6669100Y7288199D03*
G01*
X6669100Y7088200D03*
G01*
X6669100Y6838187D03*
D18*
G01*
X1090701Y3877690D03*
G01*
X2490698Y3877690D03*
D19*
G01*
X2140686Y4148683D03*
G01*
X1890699Y4148683D03*
G01*
X1690700Y4148683D03*
D20*
G01*
X1440687Y4148683D03*
D18*
G01*
X4468901Y3890390D03*
G01*
X5868898Y3890390D03*
D19*
G01*
X5518886Y4161383D03*
G01*
X5268899Y4161383D03*
G01*
X5068900Y4161383D03*
D20*
G01*
X4818888Y4161383D03*
D21*
G01*
X4867986Y7774787D03*
G01*
X2234158Y7366000D03*
G01*
X2269870Y7239000D03*
M02*
